# xmcd CD database file
#
# Track frame offsets:
#	150
#	12390
#	27688
#	43001
#	59361
#	78935
#	89156
#	104480
#	118939
#	134966
#	153627
#	172031
#
# Disc length: 2532 seconds
#
# Revision: 0
# Processed by: cddbd v1.5.2PL0 Copyright (c) Steve Scherf et al.
# Submitted via: CDex 1.51
#
DISCID=b509e20c
DTITLE=Ernie Southern - Prozac Blues
DYEAR=2006
DGENRE=Blues
TTITLE0=Rockin`Chair Daddy
TTITLE1=Ain`t Goin` Bald Jus`Getting Mo`Head
TTITLE2=Prozac Blues
TTITLE3=Hellhound On My Trail
TTITLE4=Whisky Train
TTITLE5=Just The Way You Say Goodbye
TTITLE6=Too Rowdy Blues
TTITLE7=Late Bloom
TTITLE8=Youth Is Wasted On The Young
TTITLE9=Goin`Back Home Blues
TTITLE10=Robot Lover
TTITLE11=Train Gone Dead
EXTD=YEAR: 2006
EXTT0=
EXTT1=
EXTT2=
EXTT3=
EXTT4=
EXTT5=
EXTT6=
EXTT7=
EXTT8=
EXTT9=
EXTT10=
EXTT11=
PLAYORDER=
